<?xml version="1.0" encoding="UTF-8"?>
<svg width="1024px" height="1024px" viewBox="0 0 1024 1024" version="1.1" xmlns="http://www.w3.org/2000/svg" xmlns:xlink="http://www.w3.org/1999/xlink" style="background: #FFFFFF;">
    <title>icon</title>
    <g id="Page-1" stroke="none" stroke-width="1" fill="none" fill-rule="evenodd" fill-opacity="0.85">
        <path d="M1023.5,0.5 L1023.5,1023.5 L0.5,1023.5 L0.5,0.5 L1023.5,0.5 Z M674.909091,278.772727 L349.090909,278.772727 L347.16063,278.780549 C283.52245,279.296434 225.9581,305.299637 184.174323,347.083414 C141.968488,389.289249 115.863636,447.596067 115.863636,512 C115.863636,589.02091 153.198367,657.321899 210.757814,699.792449 L210.757814,699.792449 L212.365118,700.966954 L236.007259,787.477628 L236.149413,787.970898 C236.645812,789.60769 237.367067,791.168571 238.29315,792.608574 C241.032464,796.868045 245.226001,799.627214 249.844041,800.630266 C254.430628,801.626487 259.437052,800.89049 263.852037,798.166758 L263.852037,798.166758 L346.204687,745.203918 L349.086861,745.227256 L674.909091,745.227273 L676.83937,745.219451 C740.47755,744.703566 798.0419,718.700363 839.825677,676.916586 C882.031512,634.710751 908.136364,576.403933 908.136364,512 C908.136364,447.596067 882.031512,389.289249 839.825677,347.083414 C797.619842,304.877579 739.313024,278.772727 674.909091,278.772727 L674.909091,278.772727 Z M317.44,403.583636 C325.440281,403.583636 332.691391,406.791232 337.977431,411.990554 C343.159749,417.087856 346.453423,424.09947 346.712517,431.872164 L346.7251,432.380146 L346.728672,482.710634 L396.559287,482.710845 C404.760364,482.841853 412.070274,486.144208 417.337295,491.411229 C422.627777,496.701711 425.856364,503.973842 425.856364,512 C425.856364,520.000281 422.648768,527.251391 417.449446,532.537431 C412.352144,537.719749 405.34053,541.013423 397.567836,541.272517 L397.059854,541.2851 L346.728631,541.288672 L346.729155,591.119287 C346.598147,599.320364 343.295792,606.630274 338.028771,611.897295 C332.738289,617.187777 325.466158,620.416364 317.44,620.416364 C309.439719,620.416364 302.188609,617.208768 296.902569,612.009446 C291.720251,606.912144 288.426577,599.90053 288.167483,592.127829 L288.1549,591.619847 L288.150594,541.288631 L238.320713,541.289155 C230.119636,541.158147 222.809726,537.855792 217.542705,532.588771 C212.252223,527.298289 209.023636,520.026158 209.023636,512 C209.023636,503.999719 212.231232,496.748609 217.430554,491.462569 C222.527856,486.280251 229.53947,482.986577 237.312171,482.727483 L237.820153,482.7149 L288.150634,482.710594 L288.150845,432.880713 C288.281853,424.679636 291.584208,417.369726 296.851229,412.102705 C302.141711,406.812223 309.413842,403.583636 317.44,403.583636 Z M721.454545,410.1 C749.593453,410.1 775.068453,421.505546 793.508726,439.945819 C811.948999,458.386092 823.354545,483.861092 823.354545,512 C823.354545,540.138908 811.948999,565.613908 793.508726,584.054181 C775.068453,602.494454 749.593453,613.9 721.454545,613.9 C693.315637,613.9 667.840637,602.494454 649.400364,584.054181 C630.960091,565.613908 619.554545,540.138908 619.554545,512 C619.554545,483.861092 630.960091,458.386092 649.400364,439.945819 C667.840637,421.505546 693.315637,410.1 721.454545,410.1 Z M721.454545,474.263636 C711.033936,474.263636 701.599845,478.487423 694.770907,485.316361 C687.941968,492.1453 683.718182,501.579391 683.718182,512 C683.718182,522.420609 687.941968,531.8547 694.770907,538.683639 C701.599845,545.512577 711.033936,549.736364 721.454545,549.736364 C731.875155,549.736364 741.309245,545.512577 748.138184,538.683639 C754.967123,531.8547 759.190909,522.420609 759.190909,512 C759.190909,501.579391 754.967123,492.1453 748.138184,485.316361 C741.309245,478.487423 731.875155,474.263636 721.454545,474.263636 Z" id="Combined-Shape" stroke="#FFFFFF" fill="#000000"></path>
    </g>
</svg>